<?xml version="1.0" standalone="no"?>
<!DOCTYPE svg PUBLIC "-//W3C//DTD SVG 20010904//EN"
 "http://www.w3.org/TR/2001/REC-SVG-20010904/DTD/svg10.dtd">
<svg version="1.0" xmlns="http://www.w3.org/2000/svg"
 width="300.000000pt" height="150.000000pt" viewBox="0 0 300.000000 150.000000"
 preserveAspectRatio="xMidYMid meet">
<metadata>
Created by potrace 1.10, written by Peter Selinger 2001-2011
</metadata>
<g transform="translate(0.000000,150.000000) scale(0.100000,-0.100000)"
fill="#000000" stroke="none">
<path d="M715 1349 c-22 -27 -26 -40 -22 -72 l5 -39 -256 -280 c-142 -154
-262 -289 -268 -301 -15 -30 -94 -313 -94 -337 0 -13 7 -20 19 -20 35 0 300
107 318 128 10 12 115 127 233 256 l215 236 51 0 c38 0 55 -5 69 -20 26 -29
69 -26 94 6 26 34 26 54 0 88 -25 32 -68 35 -94 6 -14 -16 -31 -20 -79 -20
l-62 0 -214 -237 c-118 -130 -220 -242 -225 -250 -9 -11 -16 -8 -39 16 l-29
30 104 114 c57 63 169 187 249 275 l145 160 112 1 c116 1 130 7 111 44 -7 15
-24 17 -123 17 l-113 0 -164 -177 c-90 -98 -207 -226 -260 -284 l-96 -107 -33
34 -32 33 39 45 c22 25 133 148 249 275 193 211 212 229 238 225 22 -5 34 1
61 28 31 31 37 33 102 33 52 0 73 -4 87 -17 22 -23 39 -23 67 0 25 20 30 63
10 87 -15 18 -71 20 -87 4 -6 -6 -42 -12 -80 -13 -66 -1 -70 0 -89 29 -14 23
-28 31 -55 33 -31 3 -41 -2 -64 -29z m84 -46 c11 -21 -3 -53 -23 -53 -21 0
-38 27 -31 50 8 24 40 26 54 3z m268 -9 c10 -26 -13 -39 -44 -25 -27 12 -27
13 -8 27 25 18 44 18 52 -2z m-17 -343 c0 -27 -19 -36 -37 -18 -18 18 -9 37
18 37 12 0 19 -7 19 -19z m-707 -489 c19 -9 2 -21 -55 -42 -75 -28 -76 -29
-58 -40 12 -7 12 -12 2 -22 -9 -9 -12 -9 -12 3 0 20 -58 89 -76 89 -8 0 -14 5
-14 10 0 13 13 13 26 0 8 -8 16 10 29 57 10 37 19 71 21 75 2 3 32 -24 67 -60
34 -37 65 -68 70 -70z m-179 -79 c4 -9 1 -20 -6 -25 -20 -12 -28 -10 -28 10 0
33 23 43 34 15z"/>
<path d="M943 792 l-103 -3 0 -169 0 -170 105 0 105 0 0 30 0 30 -70 0 -70 0
0 40 0 40 65 0 65 0 0 30 0 30 -65 0 -65 0 0 40 0 40 74 0 74 0 -2 29 c-1 16
-3 31 -6 33 -3 2 -51 2 -107 0z"/>
<path d="M2165 786 c-67 -29 -113 -120 -100 -197 15 -90 104 -157 190 -145 78
12 135 80 135 161 l0 35 -85 0 -85 0 0 -30 c0 -29 1 -30 50 -30 58 0 66 -16
24 -49 -39 -30 -87 -27 -126 8 -29 26 -33 36 -33 80 0 41 5 55 29 80 39 41 96
43 130 6 24 -26 69 -34 82 -14 9 15 -25 58 -66 87 -38 25 -98 29 -145 8z"/>
<path d="M1088 693 c11 -16 31 -47 45 -69 l26 -41 -45 -67 -44 -66 38 0 c35 0
41 4 62 41 l23 42 18 -24 c10 -13 21 -32 25 -41 4 -13 16 -18 45 -18 30 0 38
3 33 13 -4 6 -23 35 -41 64 -18 29 -33 55 -33 58 0 3 18 33 40 65 22 32 40 61
40 64 0 4 -16 6 -35 6 -30 0 -38 -6 -61 -42 l-27 -42 -24 42 c-23 38 -29 42
-65 42 l-39 0 19 -27z"/>
<path d="M1392 706 c-41 -22 -62 -66 -62 -129 0 -51 4 -61 34 -94 28 -31 41
-38 74 -38 26 0 48 7 61 19 19 17 21 17 21 3 0 -12 9 -17 30 -17 l30 0 0 135
0 135 -30 0 c-20 0 -30 -5 -30 -16 0 -14 -2 -14 -22 0 -27 19 -74 20 -106 2z
m103 -71 c33 -32 33 -78 0 -111 -18 -18 -31 -23 -48 -19 -32 10 -57 43 -57 77
0 32 38 78 65 78 9 0 27 -11 40 -25z"/>
<path d="M1630 586 l0 -136 35 0 35 0 0 88 c0 73 3 92 18 105 52 47 86 -1 80
-113 l-3 -80 32 0 33 0 0 85 c0 72 3 88 20 105 24 24 43 25 64 4 12 -12 16
-37 16 -105 l0 -89 30 0 30 0 0 109 c0 104 -1 109 -26 135 -32 32 -87 35 -124
7 -24 -19 -25 -19 -48 0 -29 23 -85 25 -102 4 -15 -18 -31 -20 -27 -2 1 7 -11
13 -30 15 l-33 3 0 -135z"/>
<path d="M2491 707 c-45 -23 -66 -63 -66 -127 0 -71 24 -109 80 -128 48 -16
86 -8 125 25 53 44 35 51 -76 28 -26 -6 -35 -2 -53 22 l-23 28 96 3 c95 3 96
3 96 28 0 97 -98 163 -179 121z m97 -65 c21 -27 14 -32 -48 -32 l-60 0 16 24
c24 37 65 41 92 8z"/>
<path d="M2700 585 l0 -135 35 0 35 0 0 88 c0 73 3 92 18 105 52 47 85 0 80
-112 l-3 -81 33 0 32 0 0 101 c0 100 -8 132 -39 156 -23 17 -86 16 -101 -2 -7
-8 -16 -15 -21 -15 -5 0 -9 7 -9 15 0 10 -10 15 -30 15 l-30 0 0 -135z"/>
</g>
</svg>
